HIERARCHY
ROOT hip
{
	OFFSET 0.000000 0.000000 0.000000 
	CHANNELS 6 Xposition Yposition Zposition Xrotation Zrotation Yrotation
	JOINT abdomen
	{
		OFFSET 0.000000 3.402643 0.000000 
		CHANNELS 3 Xrotation Zrotation Yrotation
		JOINT chest
		{
			OFFSET 0.000000 8.438565 -0.680529 
			CHANNELS 3 Xrotation Zrotation Yrotation
			JOINT neck
			{
				OFFSET 0.000000 10.207942 -0.272212 
				CHANNELS 3 Xrotation Zrotation Yrotation
				JOINT head
				{
					OFFSET 0.000000 3.130431 0.000000 
					CHANNELS 3 Xrotation Zrotation Yrotation
					End Site
					{
						OFFSET 0.000000 3.130435 0.000000 
					}
				}
			}
			JOINT lCollar
			{
				OFFSET 3.470700 6.669187 -0.816635 
				CHANNELS 3 Yrotation Zrotation Xrotation
				JOINT lShldr
				{
					OFFSET 3.198488 0.000000 0.000000 
					CHANNELS 3 Zrotation Yrotation Xrotation
					JOINT lForeArm
					{
						OFFSET 10.139888 0.000000 0.000000 
						CHANNELS 3 Yrotation Zrotation Xrotation
						JOINT lHand
						{
							OFFSET 8.370511 0.000000 0.000000 
							CHANNELS 3 Zrotation Yrotation Xrotation
							End Site
							{
								OFFSET 4.083176 0.000000 0.000000 
							}
						}
					}
				}
			}
			JOINT rCollar
			{
				OFFSET -3.470700 6.669187 -0.816635 
				CHANNELS 3 Yrotation Zrotation Xrotation
				JOINT rShldr
				{
					OFFSET -3.198488 0.000000 0.000000 
					CHANNELS 3 Zrotation Yrotation Xrotation
					JOINT rForeArm
					{
						OFFSET -10.139888 0.000000 0.000000 
						CHANNELS 3 Yrotation Zrotation Xrotation
						JOINT rHand
						{
							OFFSET -8.370511 0.000000 0.000000 
							CHANNELS 3 Zrotation Yrotation Xrotation
							End Site
							{
								OFFSET -4.083176 0.000000 0.000000 
							}
						}
					}
				}
			}
		}
	}
	JOINT lThigh
	{
		OFFSET 5.308129 -1.633274 1.361059 
		CHANNELS 3 Xrotation Zrotation Yrotation
		JOINT lShin
		{
			OFFSET -2.041588 -20.007561 0.000000 
			CHANNELS 3 Xrotation Zrotation Yrotation
			JOINT lFoot
			{
				OFFSET 0.000000 -19.190928 -1.224953 
				CHANNELS 3 Xrotation Yrotation Zrotation
				End Site
				{
					OFFSET 0.000000 -2.449906 4.627600 
				}
			}
		}
	}
	JOINT rThigh
	{
		OFFSET -5.308129 -1.633274 1.361059 
		CHANNELS 3 Xrotation Zrotation Yrotation
		JOINT rShin
		{
			OFFSET 2.041588 -20.007561 0.000000 
			CHANNELS 3 Xrotation Zrotation Yrotation
			JOINT rFoot
			{
				OFFSET 0.000000 -19.190928 -1.224953 
				CHANNELS 3 Xrotation Yrotation Zrotation
				End Site
				{
					OFFSET 0.000000 -2.449906 4.627600 
				}
			}
		}
	}
}
MOTION
Frames: 6
Frame Time: 0.033333
-67.792778 42.446663 -46.462246 41.659538 -16.984859 14.405649 24.819324 0.711050 -1.238193 -20.839844 0.000000 0.000000 -4.937155 3.344227 13.534475 -2.520832 -1.255077 0.218355 -4.754609 -0.109184 -0.002653 -85.139214 -61.446682 101.130783 -85.946083 0.500378 58.218342 3.807062 -6.116215 -0.078999 4.754609 0.109184 -0.002672 59.687424 -31.768805 42.125298 109.141266 -0.765004 28.741358 -19.973547 10.161795 -1.351352 -96.005081 15.937326 12.802009 63.706917 -1.479335 -2.624446 -10.952364 -0.294739 1.718924 -81.870613 -0.235874 13.127271 73.456345 0.197151 -3.759909 -12.188846 -2.449002 13.159702 
-66.060020 42.626381 -44.846287 41.607628 -16.515362 14.052970 24.848198 0.534127 -1.266333 -20.839844 0.000000 0.000000 -4.092324 3.178430 13.858643 -2.520832 -1.255077 0.218355 -4.754609 -0.109184 -0.002653 -84.514572 -60.646549 99.520424 -86.279167 0.490651 56.972546 3.554129 -6.526457 -0.074085 4.754609 0.109184 -0.002672 58.509621 -31.634510 42.969852 109.202431 -0.772431 28.969425 -20.140884 9.798928 -1.303282 -96.792892 15.369584 9.943845 49.951378 -2.425352 -3.593146 -11.604972 -0.348009 1.303349 -79.134705 -0.675589 14.772694 73.966362 0.070613 -5.358376 -11.442103 -2.509049 13.764016 
-64.012085 42.611153 -43.014069 41.345222 -16.026396 13.425115 24.818930 0.398070 -1.264895 -20.839844 0.000000 0.000000 -3.479792 3.343774 14.528032 -2.520832 -1.255077 0.218355 -4.754609 -0.109184 -0.002653 -84.649635 -60.643562 98.998558 -86.614410 0.483186 56.613579 3.101703 -6.339988 -0.051598 4.754609 0.109184 -0.002672 57.960739 -31.892176 43.222782 108.429840 -0.810015 30.296810 -21.207554 10.134974 -1.430991 -95.826729 14.549973 4.864755 37.779694 -3.048561 -2.473255 -9.695390 -0.196416 -0.040206 -76.202362 -1.399649 15.990025 74.942123 -0.096079 -7.367758 -10.102482 -2.436005 14.090487 
-61.565056 42.374062 -40.930092 40.905296 -15.380839 12.672822 24.760376 0.286597 -1.273316 -20.839844 0.000000 0.000000 -3.080338 3.266365 15.368874 -2.520832 -1.255077 0.218355 -4.754609 -0.109184 -0.002653 -84.800438 -59.912464 98.219864 -86.922241 0.489876 57.260208 2.708930 -6.319776 -0.032893 4.754609 0.109184 -0.002672 57.001202 -32.549725 43.738228 107.979416 -0.835537 31.293629 -21.936623 10.401731 -1.532375 -95.049599 13.485368 -1.066277 33.524487 -3.073414 0.490575 -4.584170 0.207996 -3.485422 -73.742424 -2.883501 16.955517 76.759613 -0.301556 -8.936340 -5.700931 -1.863232 13.906487 
-58.960155 41.993298 -38.718594 40.138641 -14.610243 11.886715 24.682699 0.169970 -1.240862 -20.839844 0.000000 0.000000 -2.828218 2.794113 16.104939 -2.520832 -1.255077 0.218355 -4.754609 -0.109184 -0.002653 -84.452225 -58.205627 96.597603 -87.191063 0.502502 58.260483 3.384863 -6.398544 -0.049513 4.754609 0.109184 -0.002672 54.942429 -33.467052 45.194881 108.591110 -0.828732 31.024010 -21.303280 10.243209 -1.457672 -95.442589 12.606892 -2.295640 39.191319 -2.810508 0.590709 0.381075 0.167095 -4.704189 -72.358948 -4.561594 18.080029 79.047234 -0.428179 -8.794991 4.762804 -0.505105 10.832600 
-56.536507 41.624203 -36.595009 39.054348 -13.954659 11.437073 24.663755 0.049922 -1.199394 -20.839844 0.000000 0.000000 -2.588982 2.344530 16.562860 -2.520832 -1.255077 0.218355 -4.754609 -0.109184 -0.002653 -84.305138 -56.662426 95.745949 -87.390648 0.504830 58.641048 4.342080 -6.115521 -0.059592 4.754609 0.109184 -0.002672 53.315525 -34.450638 46.272388 109.285973 -0.828417 30.917788 -20.726839 10.379195 -1.433547 -95.337585 12.001462 -0.165646 47.498959 -2.464233 -0.996084 1.786706 -0.013522 -1.323536 -71.550674 -5.752195 18.606510 80.021034 -0.076729 -2.572679 17.516420 0.105924 3.140689 
